<mxfile host="Electron" modified="2024-03-12T02:26:27.357Z" agent="Mozilla/5.0 (Macintosh; Intel Mac OS X 10_15_7) AppleWebKit/537.36 (KHTML, like Gecko) draw.io/23.0.2 Chrome/120.0.6099.109 Electron/28.1.0 Safari/537.36" etag="jn361gsNYbRxq9hhP0C_" version="23.0.2" type="device">
  <diagram name="Page-1" id="2T3tO38Hgwpg9b5XWQJb">
    <mxGraphModel dx="2574" dy="2029" grid="0" gridSize="10" guides="1" tooltips="1" connect="1" arrows="1" fold="1" page="0" pageScale="1" pageWidth="850" pageHeight="1100" math="0" shadow="0">
      <root>
        <mxCell id="0" />
        <mxCell id="1" parent="0" />
        <mxCell id="JxaHi2eS-fjqKMebFwfp-114" value="" style="strokeWidth=2;html=1;shape=mxgraph.flowchart.terminator;whiteSpace=wrap;" vertex="1" parent="1">
          <mxGeometry x="1269" y="720" width="100" height="60" as="geometry" />
        </mxCell>
        <mxCell id="JxaHi2eS-fjqKMebFwfp-20" value="" style="group" vertex="1" connectable="0" parent="1">
          <mxGeometry x="668" y="-30" width="350" height="170" as="geometry" />
        </mxCell>
        <mxCell id="JxaHi2eS-fjqKMebFwfp-303" value="" style="group" vertex="1" connectable="0" parent="JxaHi2eS-fjqKMebFwfp-20">
          <mxGeometry x="52" y="20" width="285" height="150" as="geometry" />
        </mxCell>
        <mxCell id="JxaHi2eS-fjqKMebFwfp-2" value="User" style="shape=umlActor;verticalLabelPosition=bottom;verticalAlign=top;html=1;outlineConnect=0;" vertex="1" parent="JxaHi2eS-fjqKMebFwfp-303">
          <mxGeometry y="65" width="30" height="50" as="geometry" />
        </mxCell>
        <mxCell id="JxaHi2eS-fjqKMebFwfp-3" value="" style="endArrow=classic;html=1;rounded=0;entryX=0;entryY=0.5;entryDx=0;entryDy=0;" edge="1" parent="JxaHi2eS-fjqKMebFwfp-303" target="JxaHi2eS-fjqKMebFwfp-4">
          <mxGeometry width="50" height="50" relative="1" as="geometry">
            <mxPoint x="40" y="75" as="sourcePoint" />
            <mxPoint x="120" y="65" as="targetPoint" />
          </mxGeometry>
        </mxCell>
        <mxCell id="JxaHi2eS-fjqKMebFwfp-9" value="" style="swimlane;startSize=0;" vertex="1" parent="JxaHi2eS-fjqKMebFwfp-303">
          <mxGeometry x="80" y="30" width="200" height="120" as="geometry">
            <mxRectangle x="70" y="40" width="50" height="40" as="alternateBounds" />
          </mxGeometry>
        </mxCell>
        <mxCell id="JxaHi2eS-fjqKMebFwfp-10" value="" style="group" vertex="1" connectable="0" parent="JxaHi2eS-fjqKMebFwfp-9">
          <mxGeometry x="60" y="70" width="90" height="30" as="geometry" />
        </mxCell>
        <mxCell id="JxaHi2eS-fjqKMebFwfp-11" value="" style="ellipse;whiteSpace=wrap;html=1;" vertex="1" parent="JxaHi2eS-fjqKMebFwfp-10">
          <mxGeometry width="80" height="30" as="geometry" />
        </mxCell>
        <mxCell id="JxaHi2eS-fjqKMebFwfp-12" value="&lt;font style=&quot;font-size: 10px;&quot;&gt;Calculate safe move&lt;/font&gt;" style="text;html=1;strokeColor=none;fillColor=none;align=center;verticalAlign=middle;whiteSpace=wrap;rounded=0;" vertex="1" parent="JxaHi2eS-fjqKMebFwfp-10">
          <mxGeometry x="4.09" y="6" width="71.82" height="18" as="geometry" />
        </mxCell>
        <mxCell id="JxaHi2eS-fjqKMebFwfp-13" value="" style="group" vertex="1" connectable="0" parent="JxaHi2eS-fjqKMebFwfp-9">
          <mxGeometry x="60.00000000000001" y="30" width="80" height="30" as="geometry" />
        </mxCell>
        <mxCell id="JxaHi2eS-fjqKMebFwfp-4" value="" style="ellipse;whiteSpace=wrap;html=1;" vertex="1" parent="JxaHi2eS-fjqKMebFwfp-13">
          <mxGeometry width="80" height="30" as="geometry" />
        </mxCell>
        <mxCell id="JxaHi2eS-fjqKMebFwfp-5" value="&lt;font style=&quot;font-size: 10px;&quot;&gt;Input board configuration&lt;/font&gt;" style="text;html=1;strokeColor=none;fillColor=none;align=center;verticalAlign=middle;whiteSpace=wrap;rounded=0;" vertex="1" parent="JxaHi2eS-fjqKMebFwfp-13">
          <mxGeometry x="21.11103224133779" y="6" width="37.77847737921073" height="18" as="geometry" />
        </mxCell>
        <mxCell id="JxaHi2eS-fjqKMebFwfp-199" value="Minesweeper Solver Application" style="text;html=1;strokeColor=none;fillColor=none;align=center;verticalAlign=middle;whiteSpace=wrap;rounded=0;" vertex="1" parent="JxaHi2eS-fjqKMebFwfp-303">
          <mxGeometry x="80" width="205" height="30" as="geometry" />
        </mxCell>
        <mxCell id="JxaHi2eS-fjqKMebFwfp-202" value="" style="endArrow=classic;startArrow=classic;html=1;rounded=0;entryX=0;entryY=0.5;entryDx=0;entryDy=0;" edge="1" parent="JxaHi2eS-fjqKMebFwfp-303" target="JxaHi2eS-fjqKMebFwfp-11">
          <mxGeometry width="50" height="50" relative="1" as="geometry">
            <mxPoint x="40" y="115" as="sourcePoint" />
            <mxPoint x="140" y="116" as="targetPoint" />
          </mxGeometry>
        </mxCell>
        <mxCell id="JxaHi2eS-fjqKMebFwfp-201" value="&lt;font style=&quot;font-size: 10px;&quot;&gt;Display safe move&lt;/font&gt;" style="text;html=1;strokeColor=none;fillColor=none;align=center;verticalAlign=middle;whiteSpace=wrap;rounded=0;" vertex="1" parent="JxaHi2eS-fjqKMebFwfp-303">
          <mxGeometry x="30" y="120" width="100" height="10" as="geometry" />
        </mxCell>
        <mxCell id="JxaHi2eS-fjqKMebFwfp-1" value="&lt;b&gt;&lt;font style=&quot;font-size: 24px;&quot;&gt;Context View&lt;/font&gt;&lt;/b&gt;" style="text;html=1;strokeColor=none;fillColor=none;align=center;verticalAlign=middle;whiteSpace=wrap;rounded=0;" vertex="1" parent="JxaHi2eS-fjqKMebFwfp-20">
          <mxGeometry x="134" y="-30" width="175" height="30" as="geometry" />
        </mxCell>
        <mxCell id="JxaHi2eS-fjqKMebFwfp-21" value="&lt;font style=&quot;font-size: 22px;&quot;&gt;&lt;b&gt;OOP&lt;br&gt;Minesweeper Solver&lt;br&gt;4+1&lt;br&gt;Mia Weber &amp;amp; Brandon Kamplain&lt;/b&gt;&lt;/font&gt;" style="text;html=1;strokeColor=none;fillColor=none;align=center;verticalAlign=middle;whiteSpace=wrap;rounded=0;" vertex="1" parent="1">
          <mxGeometry x="-112" y="-52" width="347" height="95" as="geometry" />
        </mxCell>
        <mxCell id="JxaHi2eS-fjqKMebFwfp-22" value="&lt;b&gt;&lt;font style=&quot;font-size: 24px;&quot;&gt;Logical View&lt;/font&gt;&lt;/b&gt;" style="text;html=1;strokeColor=none;fillColor=none;align=center;verticalAlign=middle;whiteSpace=wrap;rounded=0;" vertex="1" parent="1">
          <mxGeometry x="500" y="210" width="170" height="30" as="geometry" />
        </mxCell>
        <mxCell id="JxaHi2eS-fjqKMebFwfp-93" value="&lt;b&gt;&lt;font style=&quot;font-size: 24px;&quot;&gt;Process View&lt;/font&gt;&lt;/b&gt;" style="text;html=1;strokeColor=none;fillColor=none;align=center;verticalAlign=middle;whiteSpace=wrap;rounded=0;" vertex="1" parent="1">
          <mxGeometry x="1234" y="-10" width="175" height="30" as="geometry" />
        </mxCell>
        <mxCell id="JxaHi2eS-fjqKMebFwfp-95" value="" style="strokeWidth=2;html=1;shape=mxgraph.flowchart.start_1;whiteSpace=wrap;" vertex="1" parent="1">
          <mxGeometry x="1269" y="40" width="100" height="60" as="geometry" />
        </mxCell>
        <mxCell id="JxaHi2eS-fjqKMebFwfp-98" value="" style="group" vertex="1" connectable="0" parent="1">
          <mxGeometry x="1260" y="130" width="128" height="60" as="geometry" />
        </mxCell>
        <mxCell id="JxaHi2eS-fjqKMebFwfp-96" value="" style="strokeWidth=2;html=1;shape=mxgraph.flowchart.terminator;whiteSpace=wrap;" vertex="1" parent="JxaHi2eS-fjqKMebFwfp-98">
          <mxGeometry x="-5" width="128" height="60" as="geometry" />
        </mxCell>
        <mxCell id="JxaHi2eS-fjqKMebFwfp-97" value="Welcome!&lt;br&gt;Prompt player to place mines" style="text;html=1;strokeColor=none;fillColor=none;align=center;verticalAlign=middle;whiteSpace=wrap;rounded=0;" vertex="1" parent="JxaHi2eS-fjqKMebFwfp-98">
          <mxGeometry x="19" y="15" width="90" height="30" as="geometry" />
        </mxCell>
        <mxCell id="JxaHi2eS-fjqKMebFwfp-101" value="Yes" style="text;html=1;strokeColor=none;fillColor=none;align=center;verticalAlign=middle;whiteSpace=wrap;rounded=0;" vertex="1" parent="1">
          <mxGeometry x="1319" y="310" width="60" height="30" as="geometry" />
        </mxCell>
        <mxCell id="JxaHi2eS-fjqKMebFwfp-102" value="No" style="text;html=1;strokeColor=none;fillColor=none;align=center;verticalAlign=middle;whiteSpace=wrap;rounded=0;" vertex="1" parent="1">
          <mxGeometry x="1349" y="240" width="60" height="30" as="geometry" />
        </mxCell>
        <mxCell id="JxaHi2eS-fjqKMebFwfp-104" value="" style="endArrow=classic;html=1;rounded=0;entryX=1;entryY=0.5;entryDx=0;entryDy=0;entryPerimeter=0;exitX=1;exitY=0.5;exitDx=0;exitDy=0;exitPerimeter=0;" edge="1" parent="1" source="JxaHi2eS-fjqKMebFwfp-147" target="JxaHi2eS-fjqKMebFwfp-96">
          <mxGeometry width="50" height="50" relative="1" as="geometry">
            <mxPoint x="1360" y="320" as="sourcePoint" />
            <mxPoint x="1400" y="400" as="targetPoint" />
            <Array as="points">
              <mxPoint x="1430" y="270" />
              <mxPoint x="1430" y="160" />
            </Array>
          </mxGeometry>
        </mxCell>
        <mxCell id="JxaHi2eS-fjqKMebFwfp-105" value="" style="endArrow=classic;html=1;rounded=0;exitX=0.5;exitY=1;exitDx=0;exitDy=0;exitPerimeter=0;entryX=0.5;entryY=0;entryDx=0;entryDy=0;entryPerimeter=0;" edge="1" parent="1" source="JxaHi2eS-fjqKMebFwfp-96" target="JxaHi2eS-fjqKMebFwfp-147">
          <mxGeometry width="50" height="50" relative="1" as="geometry">
            <mxPoint x="1170" y="270" as="sourcePoint" />
            <mxPoint x="1319" y="280" as="targetPoint" />
          </mxGeometry>
        </mxCell>
        <mxCell id="JxaHi2eS-fjqKMebFwfp-106" value="" style="endArrow=classic;html=1;rounded=0;exitX=0.5;exitY=1;exitDx=0;exitDy=0;exitPerimeter=0;entryX=0.5;entryY=0;entryDx=0;entryDy=0;entryPerimeter=0;" edge="1" parent="1" source="JxaHi2eS-fjqKMebFwfp-95" target="JxaHi2eS-fjqKMebFwfp-96">
          <mxGeometry width="50" height="50" relative="1" as="geometry">
            <mxPoint x="1170" y="230" as="sourcePoint" />
            <mxPoint x="1220" y="180" as="targetPoint" />
          </mxGeometry>
        </mxCell>
        <mxCell id="JxaHi2eS-fjqKMebFwfp-107" value="Start" style="text;html=1;strokeColor=none;fillColor=none;align=center;verticalAlign=middle;whiteSpace=wrap;rounded=0;" vertex="1" parent="1">
          <mxGeometry x="1289" y="55" width="60" height="30" as="geometry" />
        </mxCell>
        <mxCell id="JxaHi2eS-fjqKMebFwfp-112" value="" style="endArrow=classic;html=1;rounded=0;entryX=1;entryY=0.5;entryDx=0;entryDy=0;" edge="1" parent="1" target="JxaHi2eS-fjqKMebFwfp-153">
          <mxGeometry width="50" height="50" relative="1" as="geometry">
            <mxPoint x="1270" y="600" as="sourcePoint" />
            <mxPoint x="1170" y="630" as="targetPoint" />
          </mxGeometry>
        </mxCell>
        <mxCell id="JxaHi2eS-fjqKMebFwfp-113" value="Mine" style="text;html=1;strokeColor=none;fillColor=none;align=center;verticalAlign=middle;whiteSpace=wrap;rounded=0;" vertex="1" parent="1">
          <mxGeometry x="1310" y="650" width="60" height="30" as="geometry" />
        </mxCell>
        <mxCell id="JxaHi2eS-fjqKMebFwfp-116" value="Hint" style="text;html=1;strokeColor=none;fillColor=none;align=center;verticalAlign=middle;whiteSpace=wrap;rounded=0;" vertex="1" parent="1">
          <mxGeometry x="1220" y="570" width="60" height="30" as="geometry" />
        </mxCell>
        <mxCell id="JxaHi2eS-fjqKMebFwfp-121" value="Empty Space" style="text;html=1;strokeColor=none;fillColor=none;align=center;verticalAlign=middle;whiteSpace=wrap;rounded=0;" vertex="1" parent="1">
          <mxGeometry x="1379" y="570" width="60" height="30" as="geometry" />
        </mxCell>
        <mxCell id="JxaHi2eS-fjqKMebFwfp-124" value="revealSpaces()&lt;br&gt;can handle hints &amp;amp; opening the board" style="shape=note;strokeWidth=2;fontSize=14;size=20;whiteSpace=wrap;html=1;fillColor=#fff2cc;strokeColor=#d6b656;fontColor=#666600;" vertex="1" parent="1">
          <mxGeometry x="1400" y="650" width="134" height="80" as="geometry" />
        </mxCell>
        <mxCell id="JxaHi2eS-fjqKMebFwfp-131" value="" style="group" vertex="1" connectable="0" parent="1">
          <mxGeometry x="1270" y="405" width="100" height="115" as="geometry" />
        </mxCell>
        <mxCell id="JxaHi2eS-fjqKMebFwfp-127" value="" style="strokeWidth=2;html=1;shape=mxgraph.flowchart.decision;whiteSpace=wrap;" vertex="1" parent="JxaHi2eS-fjqKMebFwfp-131">
          <mxGeometry x="-1" y="-10" width="100" height="100" as="geometry" />
        </mxCell>
        <mxCell id="JxaHi2eS-fjqKMebFwfp-130" value="Flagged all mines?" style="text;html=1;strokeColor=none;fillColor=none;align=center;verticalAlign=middle;whiteSpace=wrap;rounded=0;" vertex="1" parent="JxaHi2eS-fjqKMebFwfp-131">
          <mxGeometry x="25" y="27.5" width="50" height="25" as="geometry" />
        </mxCell>
        <mxCell id="JxaHi2eS-fjqKMebFwfp-188" value="No" style="text;html=1;strokeColor=none;fillColor=none;align=center;verticalAlign=middle;whiteSpace=wrap;rounded=0;" vertex="1" parent="JxaHi2eS-fjqKMebFwfp-131">
          <mxGeometry x="5" y="85" width="60" height="30" as="geometry" />
        </mxCell>
        <mxCell id="JxaHi2eS-fjqKMebFwfp-132" value="" style="group" vertex="1" connectable="0" parent="1">
          <mxGeometry x="1480" y="440" width="100" height="100" as="geometry" />
        </mxCell>
        <mxCell id="JxaHi2eS-fjqKMebFwfp-129" value="" style="strokeWidth=2;html=1;shape=mxgraph.flowchart.decision;whiteSpace=wrap;" vertex="1" parent="JxaHi2eS-fjqKMebFwfp-132">
          <mxGeometry width="100" height="100" as="geometry" />
        </mxCell>
        <mxCell id="JxaHi2eS-fjqKMebFwfp-128" value="Cleared whole board?" style="text;html=1;strokeColor=none;fillColor=none;align=center;verticalAlign=middle;whiteSpace=wrap;rounded=0;" vertex="1" parent="JxaHi2eS-fjqKMebFwfp-132">
          <mxGeometry x="20" y="35" width="60" height="30" as="geometry" />
        </mxCell>
        <mxCell id="JxaHi2eS-fjqKMebFwfp-143" value="" style="group" vertex="1" connectable="0" parent="1">
          <mxGeometry x="1259" y="570" width="120" height="60" as="geometry" />
        </mxCell>
        <mxCell id="JxaHi2eS-fjqKMebFwfp-141" value="" style="shape=parallelogram;perimeter=parallelogramPerimeter;whiteSpace=wrap;html=1;fixedSize=1;" vertex="1" parent="JxaHi2eS-fjqKMebFwfp-143">
          <mxGeometry width="120" height="60" as="geometry" />
        </mxCell>
        <mxCell id="JxaHi2eS-fjqKMebFwfp-142" value="Reveal Space(s)" style="text;html=1;strokeColor=none;fillColor=none;align=center;verticalAlign=middle;whiteSpace=wrap;rounded=0;" vertex="1" parent="JxaHi2eS-fjqKMebFwfp-143">
          <mxGeometry x="30" y="15" width="60" height="30" as="geometry" />
        </mxCell>
        <mxCell id="JxaHi2eS-fjqKMebFwfp-149" value="" style="group" vertex="1" connectable="0" parent="1">
          <mxGeometry x="1269" y="220" width="100" height="100" as="geometry" />
        </mxCell>
        <mxCell id="JxaHi2eS-fjqKMebFwfp-147" value="" style="strokeWidth=2;html=1;shape=mxgraph.flowchart.decision;whiteSpace=wrap;" vertex="1" parent="JxaHi2eS-fjqKMebFwfp-149">
          <mxGeometry width="100" height="100" as="geometry" />
        </mxCell>
        <mxCell id="JxaHi2eS-fjqKMebFwfp-148" value="Valid?" style="text;html=1;strokeColor=none;fillColor=none;align=center;verticalAlign=middle;whiteSpace=wrap;rounded=0;" vertex="1" parent="JxaHi2eS-fjqKMebFwfp-149">
          <mxGeometry x="20" y="35" width="60" height="30" as="geometry" />
        </mxCell>
        <mxCell id="JxaHi2eS-fjqKMebFwfp-150" value="Placed mine on top of another mine, didn&#39;t place all mines, etc." style="shape=note;strokeWidth=2;fontSize=14;size=20;whiteSpace=wrap;html=1;fillColor=#fff2cc;strokeColor=#d6b656;fontColor=#666600;" vertex="1" parent="1">
          <mxGeometry x="1439" y="170" width="151" height="90" as="geometry" />
        </mxCell>
        <mxCell id="JxaHi2eS-fjqKMebFwfp-155" value="" style="group" vertex="1" connectable="0" parent="1">
          <mxGeometry x="1070" y="570" width="120" height="60" as="geometry" />
        </mxCell>
        <mxCell id="JxaHi2eS-fjqKMebFwfp-153" value="" style="shape=parallelogram;perimeter=parallelogramPerimeter;whiteSpace=wrap;html=1;fixedSize=1;" vertex="1" parent="JxaHi2eS-fjqKMebFwfp-155">
          <mxGeometry width="120" height="60" as="geometry" />
        </mxCell>
        <mxCell id="JxaHi2eS-fjqKMebFwfp-154" value="Display Hint" style="text;html=1;strokeColor=none;fillColor=none;align=center;verticalAlign=middle;whiteSpace=wrap;rounded=0;" vertex="1" parent="JxaHi2eS-fjqKMebFwfp-155">
          <mxGeometry x="30" y="15" width="60" height="30" as="geometry" />
        </mxCell>
        <mxCell id="JxaHi2eS-fjqKMebFwfp-160" value="" style="endArrow=classic;html=1;rounded=0;" edge="1" parent="1">
          <mxGeometry width="50" height="50" relative="1" as="geometry">
            <mxPoint x="1369" y="599.62" as="sourcePoint" />
            <mxPoint x="1469" y="599.62" as="targetPoint" />
          </mxGeometry>
        </mxCell>
        <mxCell id="JxaHi2eS-fjqKMebFwfp-162" value="" style="group" vertex="1" connectable="0" parent="1">
          <mxGeometry x="1460" y="570" width="120" height="60" as="geometry" />
        </mxCell>
        <mxCell id="JxaHi2eS-fjqKMebFwfp-161" value="" style="shape=parallelogram;perimeter=parallelogramPerimeter;whiteSpace=wrap;html=1;fixedSize=1;" vertex="1" parent="JxaHi2eS-fjqKMebFwfp-162">
          <mxGeometry width="120" height="60" as="geometry" />
        </mxCell>
        <mxCell id="JxaHi2eS-fjqKMebFwfp-123" value="Display Open Board" style="text;html=1;strokeColor=none;fillColor=none;align=center;verticalAlign=middle;whiteSpace=wrap;rounded=0;" vertex="1" parent="JxaHi2eS-fjqKMebFwfp-162">
          <mxGeometry x="30" y="15" width="60" height="30" as="geometry" />
        </mxCell>
        <mxCell id="JxaHi2eS-fjqKMebFwfp-164" value="" style="group" vertex="1" connectable="0" parent="1">
          <mxGeometry x="1470" y="340" width="120" height="60" as="geometry" />
        </mxCell>
        <mxCell id="JxaHi2eS-fjqKMebFwfp-165" value="" style="shape=parallelogram;perimeter=parallelogramPerimeter;whiteSpace=wrap;html=1;fixedSize=1;dashed=1;dashPattern=1 2;" vertex="1" parent="JxaHi2eS-fjqKMebFwfp-164">
          <mxGeometry width="120" height="60" as="geometry" />
        </mxCell>
        <mxCell id="JxaHi2eS-fjqKMebFwfp-166" value="Flag mine(s)" style="text;html=1;strokeColor=none;fillColor=none;align=center;verticalAlign=middle;whiteSpace=wrap;rounded=0;" vertex="1" parent="JxaHi2eS-fjqKMebFwfp-164">
          <mxGeometry x="31" y="15" width="60" height="30" as="geometry" />
        </mxCell>
        <mxCell id="JxaHi2eS-fjqKMebFwfp-169" value="" style="group" vertex="1" connectable="0" parent="1">
          <mxGeometry x="1269" y="720" width="100" height="60" as="geometry" />
        </mxCell>
        <mxCell id="JxaHi2eS-fjqKMebFwfp-115" value="Game Over" style="text;html=1;strokeColor=none;fillColor=none;align=center;verticalAlign=middle;whiteSpace=wrap;rounded=0;" vertex="1" parent="JxaHi2eS-fjqKMebFwfp-169">
          <mxGeometry x="20" y="15" width="60" height="30" as="geometry" />
        </mxCell>
        <mxCell id="JxaHi2eS-fjqKMebFwfp-170" value="" style="endArrow=classic;html=1;rounded=0;exitX=0.5;exitY=1;exitDx=0;exitDy=0;entryX=0.5;entryY=0;entryDx=0;entryDy=0;entryPerimeter=0;" edge="1" parent="1" source="JxaHi2eS-fjqKMebFwfp-141" target="JxaHi2eS-fjqKMebFwfp-114">
          <mxGeometry width="50" height="50" relative="1" as="geometry">
            <mxPoint x="1340" y="630" as="sourcePoint" />
            <mxPoint x="1320" y="590" as="targetPoint" />
          </mxGeometry>
        </mxCell>
        <mxCell id="JxaHi2eS-fjqKMebFwfp-173" value="" style="endArrow=classic;html=1;rounded=0;exitX=0.584;exitY=-0.009;exitDx=0;exitDy=0;exitPerimeter=0;entryX=0.5;entryY=1;entryDx=0;entryDy=0;entryPerimeter=0;" edge="1" parent="1" source="JxaHi2eS-fjqKMebFwfp-161" target="JxaHi2eS-fjqKMebFwfp-129">
          <mxGeometry width="50" height="50" relative="1" as="geometry">
            <mxPoint x="1590" y="560" as="sourcePoint" />
            <mxPoint x="1640" y="510" as="targetPoint" />
          </mxGeometry>
        </mxCell>
        <mxCell id="JxaHi2eS-fjqKMebFwfp-174" value="" style="endArrow=classic;html=1;rounded=0;" edge="1" parent="1">
          <mxGeometry width="50" height="50" relative="1" as="geometry">
            <mxPoint x="1580" y="490" as="sourcePoint" />
            <mxPoint x="1370" y="750" as="targetPoint" />
            <Array as="points">
              <mxPoint x="1640" y="490" />
              <mxPoint x="1640" y="750" />
            </Array>
          </mxGeometry>
        </mxCell>
        <mxCell id="JxaHi2eS-fjqKMebFwfp-175" value="Yes" style="text;html=1;strokeColor=none;fillColor=none;align=center;verticalAlign=middle;whiteSpace=wrap;rounded=0;" vertex="1" parent="1">
          <mxGeometry x="1560" y="460" width="60" height="30" as="geometry" />
        </mxCell>
        <mxCell id="JxaHi2eS-fjqKMebFwfp-179" value="No" style="text;html=1;strokeColor=none;fillColor=none;align=center;verticalAlign=middle;whiteSpace=wrap;rounded=0;" vertex="1" parent="1">
          <mxGeometry x="1520" y="410" width="40" height="30" as="geometry" />
        </mxCell>
        <mxCell id="JxaHi2eS-fjqKMebFwfp-181" value="No" style="text;html=1;strokeColor=none;fillColor=none;align=center;verticalAlign=middle;whiteSpace=wrap;rounded=0;" vertex="1" parent="1">
          <mxGeometry x="1430" y="460" width="60" height="30" as="geometry" />
        </mxCell>
        <mxCell id="JxaHi2eS-fjqKMebFwfp-184" value="" style="shape=parallelogram;perimeter=parallelogramPerimeter;whiteSpace=wrap;html=1;fixedSize=1;dashed=1;dashPattern=1 2;" vertex="1" parent="1">
          <mxGeometry x="1080" y="350" width="120" height="60" as="geometry" />
        </mxCell>
        <mxCell id="JxaHi2eS-fjqKMebFwfp-185" value="Flag mine(s)" style="text;html=1;strokeColor=none;fillColor=none;align=center;verticalAlign=middle;whiteSpace=wrap;rounded=0;" vertex="1" parent="1">
          <mxGeometry x="1110" y="365" width="60" height="30" as="geometry" />
        </mxCell>
        <mxCell id="JxaHi2eS-fjqKMebFwfp-186" value="" style="endArrow=classic;html=1;rounded=0;exitX=0;exitY=0.343;exitDx=0;exitDy=0;entryX=0.5;entryY=0;entryDx=0;entryDy=0;entryPerimeter=0;exitPerimeter=0;" edge="1" parent="1" source="JxaHi2eS-fjqKMebFwfp-101" target="JxaHi2eS-fjqKMebFwfp-127">
          <mxGeometry width="50" height="50" relative="1" as="geometry">
            <mxPoint x="1380" y="390" as="sourcePoint" />
            <mxPoint x="1430" y="340" as="targetPoint" />
          </mxGeometry>
        </mxCell>
        <mxCell id="JxaHi2eS-fjqKMebFwfp-187" value="" style="endArrow=classic;html=1;rounded=0;exitX=0.5;exitY=1;exitDx=0;exitDy=0;exitPerimeter=0;entryX=0.5;entryY=0;entryDx=0;entryDy=0;" edge="1" parent="1" source="JxaHi2eS-fjqKMebFwfp-127" target="JxaHi2eS-fjqKMebFwfp-141">
          <mxGeometry width="50" height="50" relative="1" as="geometry">
            <mxPoint x="1330" y="560" as="sourcePoint" />
            <mxPoint x="1380" y="510" as="targetPoint" />
          </mxGeometry>
        </mxCell>
        <mxCell id="JxaHi2eS-fjqKMebFwfp-189" value="" style="endArrow=classic;html=1;rounded=0;exitX=0;exitY=0.5;exitDx=0;exitDy=0;exitPerimeter=0;" edge="1" parent="1" source="JxaHi2eS-fjqKMebFwfp-127">
          <mxGeometry width="50" height="50" relative="1" as="geometry">
            <mxPoint x="1150" y="520" as="sourcePoint" />
            <mxPoint x="1269" y="750" as="targetPoint" />
            <Array as="points">
              <mxPoint x="1210" y="445" />
              <mxPoint x="1210" y="750" />
            </Array>
          </mxGeometry>
        </mxCell>
        <mxCell id="JxaHi2eS-fjqKMebFwfp-190" value="Yes" style="text;html=1;strokeColor=none;fillColor=none;align=center;verticalAlign=middle;whiteSpace=wrap;rounded=0;" vertex="1" parent="1">
          <mxGeometry x="1215" y="415" width="60" height="30" as="geometry" />
        </mxCell>
        <mxCell id="JxaHi2eS-fjqKMebFwfp-191" value="End Game Procedures - show mines, update score, etc." style="shape=note;strokeWidth=2;fontSize=14;size=20;whiteSpace=wrap;html=1;fillColor=#fff2cc;strokeColor=#d6b656;fontColor=#666600;" vertex="1" parent="1">
          <mxGeometry x="1150" y="780" width="125" height="70" as="geometry" />
        </mxCell>
        <mxCell id="JxaHi2eS-fjqKMebFwfp-193" value="" style="endArrow=classic;html=1;rounded=0;dashed=1;exitX=0.967;exitY=0.167;exitDx=0;exitDy=0;exitPerimeter=0;" edge="1" parent="1" source="JxaHi2eS-fjqKMebFwfp-184">
          <mxGeometry width="50" height="50" relative="1" as="geometry">
            <mxPoint x="1200" y="360" as="sourcePoint" />
            <mxPoint x="1320" y="360" as="targetPoint" />
          </mxGeometry>
        </mxCell>
        <mxCell id="JxaHi2eS-fjqKMebFwfp-194" value="" style="endArrow=classic;html=1;rounded=0;dashed=1;" edge="1" parent="1">
          <mxGeometry width="50" height="50" relative="1" as="geometry">
            <mxPoint x="1480" y="360" as="sourcePoint" />
            <mxPoint x="1320" y="360" as="targetPoint" />
          </mxGeometry>
        </mxCell>
        <mxCell id="JxaHi2eS-fjqKMebFwfp-195" value="" style="endArrow=classic;html=1;rounded=0;exitX=0.75;exitY=0;exitDx=0;exitDy=0;entryX=0.609;entryY=-0.031;entryDx=0;entryDy=0;dashed=1;entryPerimeter=0;" edge="1" parent="1" source="JxaHi2eS-fjqKMebFwfp-153" target="JxaHi2eS-fjqKMebFwfp-188">
          <mxGeometry width="50" height="50" relative="1" as="geometry">
            <mxPoint x="1150" y="540" as="sourcePoint" />
            <mxPoint x="1200" y="490" as="targetPoint" />
            <Array as="points">
              <mxPoint x="1160" y="490" />
            </Array>
          </mxGeometry>
        </mxCell>
        <mxCell id="JxaHi2eS-fjqKMebFwfp-196" value="" style="endArrow=classic;html=1;rounded=0;exitX=0.5;exitY=0;exitDx=0;exitDy=0;dashed=1;entryX=0.413;entryY=0.996;entryDx=0;entryDy=0;entryPerimeter=0;" edge="1" parent="1" source="JxaHi2eS-fjqKMebFwfp-153" target="JxaHi2eS-fjqKMebFwfp-184">
          <mxGeometry width="50" height="50" relative="1" as="geometry">
            <mxPoint x="1100" y="500" as="sourcePoint" />
            <mxPoint x="1130" y="420" as="targetPoint" />
          </mxGeometry>
        </mxCell>
        <mxCell id="JxaHi2eS-fjqKMebFwfp-197" value="" style="endArrow=classic;html=1;rounded=0;exitX=0.5;exitY=0;exitDx=0;exitDy=0;exitPerimeter=0;dashed=1;entryX=0.5;entryY=1;entryDx=0;entryDy=0;" edge="1" parent="1" source="JxaHi2eS-fjqKMebFwfp-129" target="JxaHi2eS-fjqKMebFwfp-165">
          <mxGeometry width="50" height="50" relative="1" as="geometry">
            <mxPoint x="1460" y="460" as="sourcePoint" />
            <mxPoint x="1530" y="410" as="targetPoint" />
          </mxGeometry>
        </mxCell>
        <mxCell id="JxaHi2eS-fjqKMebFwfp-198" value="" style="endArrow=classic;html=1;rounded=0;exitX=0;exitY=0.5;exitDx=0;exitDy=0;exitPerimeter=0;dashed=1;entryX=0.837;entryY=-0.015;entryDx=0;entryDy=0;entryPerimeter=0;" edge="1" parent="1" source="JxaHi2eS-fjqKMebFwfp-129" target="JxaHi2eS-fjqKMebFwfp-188">
          <mxGeometry width="50" height="50" relative="1" as="geometry">
            <mxPoint x="1380" y="520" as="sourcePoint" />
            <mxPoint x="1330" y="490" as="targetPoint" />
          </mxGeometry>
        </mxCell>
        <mxCell id="JxaHi2eS-fjqKMebFwfp-204" value="&lt;font style=&quot;font-size: 24px;&quot;&gt;&lt;b&gt;Development View&lt;/b&gt;&lt;/font&gt;" style="text;html=1;strokeColor=none;fillColor=none;align=center;verticalAlign=middle;whiteSpace=wrap;rounded=0;" vertex="1" parent="1">
          <mxGeometry x="1203.5" y="920" width="231" height="30" as="geometry" />
        </mxCell>
        <mxCell id="JxaHi2eS-fjqKMebFwfp-205" value="" style="shape=folder;fontStyle=1;spacingTop=10;tabWidth=40;tabHeight=14;tabPosition=left;html=1;whiteSpace=wrap;" vertex="1" parent="1">
          <mxGeometry x="1167" y="991" width="286" height="241" as="geometry" />
        </mxCell>
        <mxCell id="JxaHi2eS-fjqKMebFwfp-206" value="&lt;b&gt;Testing&lt;/b&gt;" style="html=1;dropTarget=0;whiteSpace=wrap;" vertex="1" parent="1">
          <mxGeometry x="1510" y="1027" width="120" height="60" as="geometry" />
        </mxCell>
        <mxCell id="JxaHi2eS-fjqKMebFwfp-207" value="" style="shape=module;jettyWidth=8;jettyHeight=4;" vertex="1" parent="JxaHi2eS-fjqKMebFwfp-206">
          <mxGeometry x="1" width="20" height="20" relative="1" as="geometry">
            <mxPoint x="-27" y="7" as="offset" />
          </mxGeometry>
        </mxCell>
        <mxCell id="JxaHi2eS-fjqKMebFwfp-208" value="&lt;b&gt;Minesweeper Game Logic&lt;/b&gt;" style="html=1;dropTarget=0;whiteSpace=wrap;" vertex="1" parent="1">
          <mxGeometry x="1179" y="1037" width="140" height="80" as="geometry" />
        </mxCell>
        <mxCell id="JxaHi2eS-fjqKMebFwfp-209" value="" style="shape=module;jettyWidth=8;jettyHeight=4;" vertex="1" parent="JxaHi2eS-fjqKMebFwfp-208">
          <mxGeometry x="1" width="20" height="20" relative="1" as="geometry">
            <mxPoint x="-27" y="7" as="offset" />
          </mxGeometry>
        </mxCell>
        <mxCell id="JxaHi2eS-fjqKMebFwfp-210" value="&lt;b&gt;Renderer&lt;/b&gt;" style="html=1;dropTarget=0;whiteSpace=wrap;" vertex="1" parent="1">
          <mxGeometry x="1319" y="1158" width="120" height="60" as="geometry" />
        </mxCell>
        <mxCell id="JxaHi2eS-fjqKMebFwfp-211" value="" style="shape=module;jettyWidth=8;jettyHeight=4;" vertex="1" parent="JxaHi2eS-fjqKMebFwfp-210">
          <mxGeometry x="1" width="20" height="20" relative="1" as="geometry">
            <mxPoint x="-27" y="7" as="offset" />
          </mxGeometry>
        </mxCell>
        <mxCell id="JxaHi2eS-fjqKMebFwfp-23" value="Board" style="swimlane;fontStyle=1;align=center;verticalAlign=top;childLayout=stackLayout;horizontal=1;startSize=26;horizontalStack=0;resizeParent=1;resizeParentMax=0;resizeLast=0;collapsible=1;marginBottom=0;whiteSpace=wrap;html=1;" vertex="1" parent="1">
          <mxGeometry x="80" y="320" width="280" height="322" as="geometry" />
        </mxCell>
        <mxCell id="JxaHi2eS-fjqKMebFwfp-24" value="- width: int" style="text;strokeColor=none;fillColor=none;align=left;verticalAlign=top;spacingLeft=4;spacingRight=4;overflow=hidden;rotatable=0;points=[[0,0.5],[1,0.5]];portConstraint=eastwest;whiteSpace=wrap;html=1;" vertex="1" parent="JxaHi2eS-fjqKMebFwfp-23">
          <mxGeometry y="26" width="280" height="26" as="geometry" />
        </mxCell>
        <mxCell id="JxaHi2eS-fjqKMebFwfp-53" value="- height: int" style="text;strokeColor=none;fillColor=none;align=left;verticalAlign=top;spacingLeft=4;spacingRight=4;overflow=hidden;rotatable=0;points=[[0,0.5],[1,0.5]];portConstraint=eastwest;whiteSpace=wrap;html=1;" vertex="1" parent="JxaHi2eS-fjqKMebFwfp-23">
          <mxGeometry y="52" width="280" height="26" as="geometry" />
        </mxCell>
        <mxCell id="JxaHi2eS-fjqKMebFwfp-54" value="- grid: Space[][]" style="text;strokeColor=none;fillColor=none;align=left;verticalAlign=top;spacingLeft=4;spacingRight=4;overflow=hidden;rotatable=0;points=[[0,0.5],[1,0.5]];portConstraint=eastwest;whiteSpace=wrap;html=1;" vertex="1" parent="JxaHi2eS-fjqKMebFwfp-23">
          <mxGeometry y="78" width="280" height="26" as="geometry" />
        </mxCell>
        <mxCell id="JxaHi2eS-fjqKMebFwfp-25" value="" style="line;strokeWidth=1;fillColor=none;align=left;verticalAlign=middle;spacingTop=-1;spacingLeft=3;spacingRight=3;rotatable=0;labelPosition=right;points=[];portConstraint=eastwest;strokeColor=inherit;" vertex="1" parent="JxaHi2eS-fjqKMebFwfp-23">
          <mxGeometry y="104" width="280" height="8" as="geometry" />
        </mxCell>
        <mxCell id="JxaHi2eS-fjqKMebFwfp-26" value="+ initialize_board(width: int, height: int): None" style="text;strokeColor=none;fillColor=none;align=left;verticalAlign=top;spacingLeft=4;spacingRight=4;overflow=hidden;rotatable=0;points=[[0,0.5],[1,0.5]];portConstraint=eastwest;whiteSpace=wrap;html=1;" vertex="1" parent="JxaHi2eS-fjqKMebFwfp-23">
          <mxGeometry y="112" width="280" height="28" as="geometry" />
        </mxCell>
        <mxCell id="JxaHi2eS-fjqKMebFwfp-263" value="+ initialize_mines(num_mines: int): None" style="text;strokeColor=none;fillColor=none;align=left;verticalAlign=top;spacingLeft=4;spacingRight=4;overflow=hidden;rotatable=0;points=[[0,0.5],[1,0.5]];portConstraint=eastwest;whiteSpace=wrap;html=1;" vertex="1" parent="JxaHi2eS-fjqKMebFwfp-23">
          <mxGeometry y="140" width="280" height="26" as="geometry" />
        </mxCell>
        <mxCell id="JxaHi2eS-fjqKMebFwfp-71" value="+ reveal_space(position: Position): None" style="text;strokeColor=none;fillColor=none;align=left;verticalAlign=top;spacingLeft=4;spacingRight=4;overflow=hidden;rotatable=0;points=[[0,0.5],[1,0.5]];portConstraint=eastwest;whiteSpace=wrap;html=1;" vertex="1" parent="JxaHi2eS-fjqKMebFwfp-23">
          <mxGeometry y="166" width="280" height="26" as="geometry" />
        </mxCell>
        <mxCell id="JxaHi2eS-fjqKMebFwfp-222" value="+ calculate_hints(): None" style="text;strokeColor=none;fillColor=none;align=left;verticalAlign=top;spacingLeft=4;spacingRight=4;overflow=hidden;rotatable=0;points=[[0,0.5],[1,0.5]];portConstraint=eastwest;whiteSpace=wrap;html=1;" vertex="1" parent="JxaHi2eS-fjqKMebFwfp-23">
          <mxGeometry y="192" width="280" height="26" as="geometry" />
        </mxCell>
        <mxCell id="JxaHi2eS-fjqKMebFwfp-72" value="+ reveal_nearby_spaces(position: Position): None" style="text;strokeColor=none;fillColor=none;align=left;verticalAlign=top;spacingLeft=4;spacingRight=4;overflow=hidden;rotatable=0;points=[[0,0.5],[1,0.5]];portConstraint=eastwest;whiteSpace=wrap;html=1;" vertex="1" parent="JxaHi2eS-fjqKMebFwfp-23">
          <mxGeometry y="218" width="280" height="26" as="geometry" />
        </mxCell>
        <mxCell id="JxaHi2eS-fjqKMebFwfp-252" value="+ get_mine_placement(): list[Position]" style="text;strokeColor=none;fillColor=none;align=left;verticalAlign=top;spacingLeft=4;spacingRight=4;overflow=hidden;rotatable=0;points=[[0,0.5],[1,0.5]];portConstraint=eastwest;whiteSpace=wrap;html=1;" vertex="1" parent="JxaHi2eS-fjqKMebFwfp-23">
          <mxGeometry y="244" width="280" height="26" as="geometry" />
        </mxCell>
        <mxCell id="JxaHi2eS-fjqKMebFwfp-259" value="+ flag_space(position: Position): None" style="text;strokeColor=none;fillColor=none;align=left;verticalAlign=top;spacingLeft=4;spacingRight=4;overflow=hidden;rotatable=0;points=[[0,0.5],[1,0.5]];portConstraint=eastwest;whiteSpace=wrap;html=1;" vertex="1" parent="JxaHi2eS-fjqKMebFwfp-23">
          <mxGeometry y="270" width="280" height="26" as="geometry" />
        </mxCell>
        <mxCell id="JxaHi2eS-fjqKMebFwfp-260" value="+ unflag_space(position: Position): None" style="text;strokeColor=none;fillColor=none;align=left;verticalAlign=top;spacingLeft=4;spacingRight=4;overflow=hidden;rotatable=0;points=[[0,0.5],[1,0.5]];portConstraint=eastwest;whiteSpace=wrap;html=1;" vertex="1" parent="JxaHi2eS-fjqKMebFwfp-23">
          <mxGeometry y="296" width="280" height="26" as="geometry" />
        </mxCell>
        <mxCell id="JxaHi2eS-fjqKMebFwfp-31" value="Position" style="swimlane;fontStyle=1;align=center;verticalAlign=top;childLayout=stackLayout;horizontal=1;startSize=26;horizontalStack=0;resizeParent=1;resizeParentMax=0;resizeLast=0;collapsible=1;marginBottom=0;whiteSpace=wrap;html=1;" vertex="1" parent="1">
          <mxGeometry x="140" y="1014" width="160" height="86" as="geometry" />
        </mxCell>
        <mxCell id="JxaHi2eS-fjqKMebFwfp-32" value="- x: int" style="text;strokeColor=none;fillColor=none;align=left;verticalAlign=top;spacingLeft=4;spacingRight=4;overflow=hidden;rotatable=0;points=[[0,0.5],[1,0.5]];portConstraint=eastwest;whiteSpace=wrap;html=1;" vertex="1" parent="JxaHi2eS-fjqKMebFwfp-31">
          <mxGeometry y="26" width="160" height="26" as="geometry" />
        </mxCell>
        <mxCell id="JxaHi2eS-fjqKMebFwfp-48" value="- y: int" style="text;strokeColor=none;fillColor=none;align=left;verticalAlign=top;spacingLeft=4;spacingRight=4;overflow=hidden;rotatable=0;points=[[0,0.5],[1,0.5]];portConstraint=eastwest;whiteSpace=wrap;html=1;" vertex="1" parent="JxaHi2eS-fjqKMebFwfp-31">
          <mxGeometry y="52" width="160" height="26" as="geometry" />
        </mxCell>
        <mxCell id="JxaHi2eS-fjqKMebFwfp-33" value="" style="line;strokeWidth=1;fillColor=none;align=left;verticalAlign=middle;spacingTop=-1;spacingLeft=3;spacingRight=3;rotatable=0;labelPosition=right;points=[];portConstraint=eastwest;strokeColor=inherit;" vertex="1" parent="JxaHi2eS-fjqKMebFwfp-31">
          <mxGeometry y="78" width="160" height="8" as="geometry" />
        </mxCell>
        <mxCell id="JxaHi2eS-fjqKMebFwfp-35" value="Space" style="swimlane;fontStyle=1;align=center;verticalAlign=top;childLayout=stackLayout;horizontal=1;startSize=26;horizontalStack=0;resizeParent=1;resizeParentMax=0;resizeLast=0;collapsible=1;marginBottom=0;whiteSpace=wrap;html=1;" vertex="1" parent="1">
          <mxGeometry x="110" y="725" width="220" height="242" as="geometry" />
        </mxCell>
        <mxCell id="JxaHi2eS-fjqKMebFwfp-36" value="- hint: int" style="text;strokeColor=none;fillColor=none;align=left;verticalAlign=top;spacingLeft=4;spacingRight=4;overflow=hidden;rotatable=0;points=[[0,0.5],[1,0.5]];portConstraint=eastwest;whiteSpace=wrap;html=1;" vertex="1" parent="JxaHi2eS-fjqKMebFwfp-35">
          <mxGeometry y="26" width="220" height="26" as="geometry" />
        </mxCell>
        <mxCell id="JxaHi2eS-fjqKMebFwfp-46" value="- is_hidden: bool" style="text;strokeColor=none;fillColor=none;align=left;verticalAlign=top;spacingLeft=4;spacingRight=4;overflow=hidden;rotatable=0;points=[[0,0.5],[1,0.5]];portConstraint=eastwest;whiteSpace=wrap;html=1;" vertex="1" parent="JxaHi2eS-fjqKMebFwfp-35">
          <mxGeometry y="52" width="220" height="26" as="geometry" />
        </mxCell>
        <mxCell id="JxaHi2eS-fjqKMebFwfp-47" value="- contains_mine: bool" style="text;strokeColor=none;fillColor=none;align=left;verticalAlign=top;spacingLeft=4;spacingRight=4;overflow=hidden;rotatable=0;points=[[0,0.5],[1,0.5]];portConstraint=eastwest;whiteSpace=wrap;html=1;" vertex="1" parent="JxaHi2eS-fjqKMebFwfp-35">
          <mxGeometry y="78" width="220" height="26" as="geometry" />
        </mxCell>
        <mxCell id="JxaHi2eS-fjqKMebFwfp-256" value="- is_flagged: bool" style="text;strokeColor=none;fillColor=none;align=left;verticalAlign=top;spacingLeft=4;spacingRight=4;overflow=hidden;rotatable=0;points=[[0,0.5],[1,0.5]];portConstraint=eastwest;whiteSpace=wrap;html=1;" vertex="1" parent="JxaHi2eS-fjqKMebFwfp-35">
          <mxGeometry y="104" width="220" height="26" as="geometry" />
        </mxCell>
        <mxCell id="JxaHi2eS-fjqKMebFwfp-65" value="- position: Position" style="text;strokeColor=none;fillColor=none;align=left;verticalAlign=top;spacingLeft=4;spacingRight=4;overflow=hidden;rotatable=0;points=[[0,0.5],[1,0.5]];portConstraint=eastwest;whiteSpace=wrap;html=1;" vertex="1" parent="JxaHi2eS-fjqKMebFwfp-35">
          <mxGeometry y="130" width="220" height="26" as="geometry" />
        </mxCell>
        <mxCell id="JxaHi2eS-fjqKMebFwfp-37" value="" style="line;strokeWidth=1;fillColor=none;align=left;verticalAlign=middle;spacingTop=-1;spacingLeft=3;spacingRight=3;rotatable=0;labelPosition=right;points=[];portConstraint=eastwest;strokeColor=inherit;" vertex="1" parent="JxaHi2eS-fjqKMebFwfp-35">
          <mxGeometry y="156" width="220" height="8" as="geometry" />
        </mxCell>
        <mxCell id="JxaHi2eS-fjqKMebFwfp-38" value="+ reveal(): void" style="text;strokeColor=none;fillColor=none;align=left;verticalAlign=top;spacingLeft=4;spacingRight=4;overflow=hidden;rotatable=0;points=[[0,0.5],[1,0.5]];portConstraint=eastwest;whiteSpace=wrap;html=1;" vertex="1" parent="JxaHi2eS-fjqKMebFwfp-35">
          <mxGeometry y="164" width="220" height="26" as="geometry" />
        </mxCell>
        <mxCell id="JxaHi2eS-fjqKMebFwfp-66" value="+ is_mine(): void" style="text;strokeColor=none;fillColor=none;align=left;verticalAlign=top;spacingLeft=4;spacingRight=4;overflow=hidden;rotatable=0;points=[[0,0.5],[1,0.5]];portConstraint=eastwest;whiteSpace=wrap;html=1;" vertex="1" parent="JxaHi2eS-fjqKMebFwfp-35">
          <mxGeometry y="190" width="220" height="26" as="geometry" />
        </mxCell>
        <mxCell id="JxaHi2eS-fjqKMebFwfp-219" value="+ get_hint(): int" style="text;strokeColor=none;fillColor=none;align=left;verticalAlign=top;spacingLeft=4;spacingRight=4;overflow=hidden;rotatable=0;points=[[0,0.5],[1,0.5]];portConstraint=eastwest;whiteSpace=wrap;html=1;" vertex="1" parent="JxaHi2eS-fjqKMebFwfp-35">
          <mxGeometry y="216" width="220" height="26" as="geometry" />
        </mxCell>
        <mxCell id="JxaHi2eS-fjqKMebFwfp-57" value="Solver" style="swimlane;fontStyle=1;align=center;verticalAlign=top;childLayout=stackLayout;horizontal=1;startSize=26;horizontalStack=0;resizeParent=1;resizeParentMax=0;resizeLast=0;collapsible=1;marginBottom=0;whiteSpace=wrap;html=1;" vertex="1" parent="1">
          <mxGeometry x="760" y="600" width="210" height="112" as="geometry" />
        </mxCell>
        <mxCell id="JxaHi2eS-fjqKMebFwfp-220" value="- board: Board" style="text;strokeColor=none;fillColor=none;align=left;verticalAlign=top;spacingLeft=4;spacingRight=4;overflow=hidden;rotatable=0;points=[[0,0.5],[1,0.5]];portConstraint=eastwest;whiteSpace=wrap;html=1;" vertex="1" parent="JxaHi2eS-fjqKMebFwfp-57">
          <mxGeometry y="26" width="210" height="26" as="geometry" />
        </mxCell>
        <mxCell id="JxaHi2eS-fjqKMebFwfp-59" value="" style="line;strokeWidth=1;fillColor=none;align=left;verticalAlign=middle;spacingTop=-1;spacingLeft=3;spacingRight=3;rotatable=0;labelPosition=right;points=[];portConstraint=eastwest;strokeColor=inherit;" vertex="1" parent="JxaHi2eS-fjqKMebFwfp-57">
          <mxGeometry y="52" width="210" height="8" as="geometry" />
        </mxCell>
        <mxCell id="JxaHi2eS-fjqKMebFwfp-215" value="+ choose_space(): Position" style="text;strokeColor=none;fillColor=none;align=left;verticalAlign=top;spacingLeft=4;spacingRight=4;overflow=hidden;rotatable=0;points=[[0,0.5],[1,0.5]];portConstraint=eastwest;whiteSpace=wrap;html=1;" vertex="1" parent="JxaHi2eS-fjqKMebFwfp-57">
          <mxGeometry y="60" width="210" height="26" as="geometry" />
        </mxCell>
        <mxCell id="JxaHi2eS-fjqKMebFwfp-221" value="+ solve_step(): None" style="text;strokeColor=none;fillColor=none;align=left;verticalAlign=top;spacingLeft=4;spacingRight=4;overflow=hidden;rotatable=0;points=[[0,0.5],[1,0.5]];portConstraint=eastwest;whiteSpace=wrap;html=1;" vertex="1" parent="JxaHi2eS-fjqKMebFwfp-57">
          <mxGeometry y="86" width="210" height="26" as="geometry" />
        </mxCell>
        <mxCell id="JxaHi2eS-fjqKMebFwfp-61" value="Game" style="swimlane;fontStyle=1;align=center;verticalAlign=top;childLayout=stackLayout;horizontal=1;startSize=26;horizontalStack=0;resizeParent=1;resizeParentMax=0;resizeLast=0;collapsible=1;marginBottom=0;whiteSpace=wrap;html=1;" vertex="1" parent="1">
          <mxGeometry x="430" y="520" width="290" height="318" as="geometry" />
        </mxCell>
        <mxCell id="JxaHi2eS-fjqKMebFwfp-62" value="- board: Board" style="text;strokeColor=none;fillColor=none;align=left;verticalAlign=top;spacingLeft=4;spacingRight=4;overflow=hidden;rotatable=0;points=[[0,0.5],[1,0.5]];portConstraint=eastwest;whiteSpace=wrap;html=1;" vertex="1" parent="JxaHi2eS-fjqKMebFwfp-61">
          <mxGeometry y="26" width="290" height="26" as="geometry" />
        </mxCell>
        <mxCell id="JxaHi2eS-fjqKMebFwfp-216" value="- solver: Solver" style="text;strokeColor=none;fillColor=none;align=left;verticalAlign=top;spacingLeft=4;spacingRight=4;overflow=hidden;rotatable=0;points=[[0,0.5],[1,0.5]];portConstraint=eastwest;whiteSpace=wrap;html=1;" vertex="1" parent="JxaHi2eS-fjqKMebFwfp-61">
          <mxGeometry y="52" width="290" height="26" as="geometry" />
        </mxCell>
        <mxCell id="JxaHi2eS-fjqKMebFwfp-217" value="- game_won: bool" style="text;strokeColor=none;fillColor=none;align=left;verticalAlign=top;spacingLeft=4;spacingRight=4;overflow=hidden;rotatable=0;points=[[0,0.5],[1,0.5]];portConstraint=eastwest;whiteSpace=wrap;html=1;" vertex="1" parent="JxaHi2eS-fjqKMebFwfp-61">
          <mxGeometry y="78" width="290" height="26" as="geometry" />
        </mxCell>
        <mxCell id="JxaHi2eS-fjqKMebFwfp-218" value="- game_over: bool" style="text;strokeColor=none;fillColor=none;align=left;verticalAlign=top;spacingLeft=4;spacingRight=4;overflow=hidden;rotatable=0;points=[[0,0.5],[1,0.5]];portConstraint=eastwest;whiteSpace=wrap;html=1;" vertex="1" parent="JxaHi2eS-fjqKMebFwfp-61">
          <mxGeometry y="104" width="290" height="26" as="geometry" />
        </mxCell>
        <mxCell id="JxaHi2eS-fjqKMebFwfp-232" value="- mine_counter: int" style="text;strokeColor=none;fillColor=none;align=left;verticalAlign=top;spacingLeft=4;spacingRight=4;overflow=hidden;rotatable=0;points=[[0,0.5],[1,0.5]];portConstraint=eastwest;whiteSpace=wrap;html=1;" vertex="1" parent="JxaHi2eS-fjqKMebFwfp-61">
          <mxGeometry y="130" width="290" height="26" as="geometry" />
        </mxCell>
        <mxCell id="JxaHi2eS-fjqKMebFwfp-231" value="- timer: Timer" style="text;strokeColor=none;fillColor=none;align=left;verticalAlign=top;spacingLeft=4;spacingRight=4;overflow=hidden;rotatable=0;points=[[0,0.5],[1,0.5]];portConstraint=eastwest;whiteSpace=wrap;html=1;" vertex="1" parent="JxaHi2eS-fjqKMebFwfp-61">
          <mxGeometry y="156" width="290" height="26" as="geometry" />
        </mxCell>
        <mxCell id="JxaHi2eS-fjqKMebFwfp-63" value="" style="line;strokeWidth=1;fillColor=none;align=left;verticalAlign=middle;spacingTop=-1;spacingLeft=3;spacingRight=3;rotatable=0;labelPosition=right;points=[];portConstraint=eastwest;strokeColor=inherit;" vertex="1" parent="JxaHi2eS-fjqKMebFwfp-61">
          <mxGeometry y="182" width="290" height="8" as="geometry" />
        </mxCell>
        <mxCell id="JxaHi2eS-fjqKMebFwfp-78" value="+ start_game(): None" style="text;strokeColor=none;fillColor=none;align=left;verticalAlign=top;spacingLeft=4;spacingRight=4;overflow=hidden;rotatable=0;points=[[0,0.5],[1,0.5]];portConstraint=eastwest;whiteSpace=wrap;html=1;" vertex="1" parent="JxaHi2eS-fjqKMebFwfp-61">
          <mxGeometry y="190" width="290" height="26" as="geometry" />
        </mxCell>
        <mxCell id="JxaHi2eS-fjqKMebFwfp-64" value="+ end_game(): None" style="text;strokeColor=none;fillColor=none;align=left;verticalAlign=top;spacingLeft=4;spacingRight=4;overflow=hidden;rotatable=0;points=[[0,0.5],[1,0.5]];portConstraint=eastwest;whiteSpace=wrap;html=1;" vertex="1" parent="JxaHi2eS-fjqKMebFwfp-61">
          <mxGeometry y="216" width="290" height="24" as="geometry" />
        </mxCell>
        <mxCell id="JxaHi2eS-fjqKMebFwfp-60" value="+ is_won(): bool" style="text;strokeColor=none;fillColor=none;align=left;verticalAlign=top;spacingLeft=4;spacingRight=4;overflow=hidden;rotatable=0;points=[[0,0.5],[1,0.5]];portConstraint=eastwest;whiteSpace=wrap;html=1;" vertex="1" parent="JxaHi2eS-fjqKMebFwfp-61">
          <mxGeometry y="240" width="290" height="26" as="geometry" />
        </mxCell>
        <mxCell id="JxaHi2eS-fjqKMebFwfp-233" value="+ update_timer(): None" style="text;strokeColor=none;fillColor=none;align=left;verticalAlign=top;spacingLeft=4;spacingRight=4;overflow=hidden;rotatable=0;points=[[0,0.5],[1,0.5]];portConstraint=eastwest;whiteSpace=wrap;html=1;" vertex="1" parent="JxaHi2eS-fjqKMebFwfp-61">
          <mxGeometry y="266" width="290" height="26" as="geometry" />
        </mxCell>
        <mxCell id="JxaHi2eS-fjqKMebFwfp-234" value="+ update_mine_counter(direction: bool): None" style="text;strokeColor=none;fillColor=none;align=left;verticalAlign=top;spacingLeft=4;spacingRight=4;overflow=hidden;rotatable=0;points=[[0,0.5],[1,0.5]];portConstraint=eastwest;whiteSpace=wrap;html=1;" vertex="1" parent="JxaHi2eS-fjqKMebFwfp-61">
          <mxGeometry y="292" width="290" height="26" as="geometry" />
        </mxCell>
        <mxCell id="JxaHi2eS-fjqKMebFwfp-223" value="&lt;font style=&quot;font-size: 24px;&quot;&gt;Physical View&lt;/font&gt;" style="text;align=center;fontStyle=1;verticalAlign=middle;spacingLeft=3;spacingRight=3;strokeColor=none;rotatable=0;points=[[0,0.5],[1,0.5]];portConstraint=eastwest;html=1;" vertex="1" parent="1">
          <mxGeometry x="430" y="1280" width="80" height="26" as="geometry" />
        </mxCell>
        <mxCell id="JxaHi2eS-fjqKMebFwfp-224" value="" style="shape=cube;whiteSpace=wrap;html=1;boundedLbl=1;backgroundOutline=1;darkOpacity=0.05;darkOpacity2=0.1;" vertex="1" parent="1">
          <mxGeometry x="365" y="1330" width="215" height="150" as="geometry" />
        </mxCell>
        <mxCell id="JxaHi2eS-fjqKMebFwfp-225" value="Client" style="text;align=center;fontStyle=1;verticalAlign=middle;spacingLeft=3;spacingRight=3;strokeColor=none;rotatable=0;points=[[0,0.5],[1,0.5]];portConstraint=eastwest;html=1;" vertex="1" parent="1">
          <mxGeometry x="427.5" y="1354" width="80" height="26" as="geometry" />
        </mxCell>
        <mxCell id="JxaHi2eS-fjqKMebFwfp-226" value="&lt;p style=&quot;margin:0px;margin-top:6px;text-align:center;&quot;&gt;&lt;b&gt;Client App&lt;/b&gt;&lt;/p&gt;" style="align=left;overflow=fill;html=1;dropTarget=0;whiteSpace=wrap;" vertex="1" parent="1">
          <mxGeometry x="411.5" y="1390" width="148.5" height="80" as="geometry" />
        </mxCell>
        <mxCell id="JxaHi2eS-fjqKMebFwfp-227" value="" style="shape=component;jettyWidth=8;jettyHeight=4;" vertex="1" parent="JxaHi2eS-fjqKMebFwfp-226">
          <mxGeometry x="1" width="20" height="20" relative="1" as="geometry">
            <mxPoint x="-24" y="4" as="offset" />
          </mxGeometry>
        </mxCell>
        <mxCell id="JxaHi2eS-fjqKMebFwfp-235" value="Renderer" style="swimlane;fontStyle=1;align=center;verticalAlign=top;childLayout=stackLayout;horizontal=1;startSize=26;horizontalStack=0;resizeParent=1;resizeParentMax=0;resizeLast=0;collapsible=1;marginBottom=0;whiteSpace=wrap;html=1;" vertex="1" parent="1">
          <mxGeometry x="405" y="890" width="340" height="268" as="geometry" />
        </mxCell>
        <mxCell id="JxaHi2eS-fjqKMebFwfp-237" value="" style="line;strokeWidth=1;fillColor=none;align=left;verticalAlign=middle;spacingTop=-1;spacingLeft=3;spacingRight=3;rotatable=0;labelPosition=right;points=[];portConstraint=eastwest;strokeColor=inherit;" vertex="1" parent="JxaHi2eS-fjqKMebFwfp-235">
          <mxGeometry y="26" width="340" height="8" as="geometry" />
        </mxCell>
        <mxCell id="JxaHi2eS-fjqKMebFwfp-238" value="+ display_board(board: Board): None" style="text;strokeColor=none;fillColor=none;align=left;verticalAlign=top;spacingLeft=4;spacingRight=4;overflow=hidden;rotatable=0;points=[[0,0.5],[1,0.5]];portConstraint=eastwest;whiteSpace=wrap;html=1;" vertex="1" parent="JxaHi2eS-fjqKMebFwfp-235">
          <mxGeometry y="34" width="340" height="26" as="geometry" />
        </mxCell>
        <mxCell id="JxaHi2eS-fjqKMebFwfp-254" value="+ flag_space(space: Space): None" style="text;strokeColor=none;fillColor=none;align=left;verticalAlign=top;spacingLeft=4;spacingRight=4;overflow=hidden;rotatable=0;points=[[0,0.5],[1,0.5]];portConstraint=eastwest;whiteSpace=wrap;html=1;" vertex="1" parent="JxaHi2eS-fjqKMebFwfp-235">
          <mxGeometry y="60" width="340" height="26" as="geometry" />
        </mxCell>
        <mxCell id="JxaHi2eS-fjqKMebFwfp-239" value="+ display_space(space: Space): None" style="text;strokeColor=none;fillColor=none;align=left;verticalAlign=top;spacingLeft=4;spacingRight=4;overflow=hidden;rotatable=0;points=[[0,0.5],[1,0.5]];portConstraint=eastwest;whiteSpace=wrap;html=1;" vertex="1" parent="JxaHi2eS-fjqKMebFwfp-235">
          <mxGeometry y="86" width="340" height="26" as="geometry" />
        </mxCell>
        <mxCell id="JxaHi2eS-fjqKMebFwfp-240" value="+ update_timer(timer: Timer): None" style="text;strokeColor=none;fillColor=none;align=left;verticalAlign=top;spacingLeft=4;spacingRight=4;overflow=hidden;rotatable=0;points=[[0,0.5],[1,0.5]];portConstraint=eastwest;whiteSpace=wrap;html=1;" vertex="1" parent="JxaHi2eS-fjqKMebFwfp-235">
          <mxGeometry y="112" width="340" height="26" as="geometry" />
        </mxCell>
        <mxCell id="JxaHi2eS-fjqKMebFwfp-253" value="+ update_mine_counter(mine_count: int): None" style="text;strokeColor=none;fillColor=none;align=left;verticalAlign=top;spacingLeft=4;spacingRight=4;overflow=hidden;rotatable=0;points=[[0,0.5],[1,0.5]];portConstraint=eastwest;whiteSpace=wrap;html=1;" vertex="1" parent="JxaHi2eS-fjqKMebFwfp-235">
          <mxGeometry y="138" width="340" height="26" as="geometry" />
        </mxCell>
        <mxCell id="JxaHi2eS-fjqKMebFwfp-241" value="+ show_game_over(won: bool): None" style="text;strokeColor=none;fillColor=none;align=left;verticalAlign=top;spacingLeft=4;spacingRight=4;overflow=hidden;rotatable=0;points=[[0,0.5],[1,0.5]];portConstraint=eastwest;whiteSpace=wrap;html=1;" vertex="1" parent="JxaHi2eS-fjqKMebFwfp-235">
          <mxGeometry y="164" width="340" height="26" as="geometry" />
        </mxCell>
        <mxCell id="JxaHi2eS-fjqKMebFwfp-261" value="+ draw_flag(position: Position): None" style="text;strokeColor=none;fillColor=none;align=left;verticalAlign=top;spacingLeft=4;spacingRight=4;overflow=hidden;rotatable=0;points=[[0,0.5],[1,0.5]];portConstraint=eastwest;whiteSpace=wrap;html=1;" vertex="1" parent="JxaHi2eS-fjqKMebFwfp-235">
          <mxGeometry y="190" width="340" height="26" as="geometry" />
        </mxCell>
        <mxCell id="JxaHi2eS-fjqKMebFwfp-262" value="+ remove_flag(position: Position): None" style="text;strokeColor=none;fillColor=none;align=left;verticalAlign=top;spacingLeft=4;spacingRight=4;overflow=hidden;rotatable=0;points=[[0,0.5],[1,0.5]];portConstraint=eastwest;whiteSpace=wrap;html=1;" vertex="1" parent="JxaHi2eS-fjqKMebFwfp-235">
          <mxGeometry y="216" width="340" height="26" as="geometry" />
        </mxCell>
        <mxCell id="JxaHi2eS-fjqKMebFwfp-264" value="+ draw_mines(list[position: Position]): None" style="text;strokeColor=none;fillColor=none;align=left;verticalAlign=top;spacingLeft=4;spacingRight=4;overflow=hidden;rotatable=0;points=[[0,0.5],[1,0.5]];portConstraint=eastwest;whiteSpace=wrap;html=1;" vertex="1" parent="JxaHi2eS-fjqKMebFwfp-235">
          <mxGeometry y="242" width="340" height="26" as="geometry" />
        </mxCell>
        <mxCell id="JxaHi2eS-fjqKMebFwfp-242" value="Timer" style="swimlane;fontStyle=1;align=center;verticalAlign=top;childLayout=stackLayout;horizontal=1;startSize=26;horizontalStack=0;resizeParent=1;resizeParentMax=0;resizeLast=0;collapsible=1;marginBottom=0;whiteSpace=wrap;html=1;" vertex="1" parent="1">
          <mxGeometry x="790" y="317" width="160" height="216" as="geometry" />
        </mxCell>
        <mxCell id="JxaHi2eS-fjqKMebFwfp-243" value="- start_time: DateTime" style="text;strokeColor=none;fillColor=none;align=left;verticalAlign=top;spacingLeft=4;spacingRight=4;overflow=hidden;rotatable=0;points=[[0,0.5],[1,0.5]];portConstraint=eastwest;whiteSpace=wrap;html=1;" vertex="1" parent="JxaHi2eS-fjqKMebFwfp-242">
          <mxGeometry y="26" width="160" height="26" as="geometry" />
        </mxCell>
        <mxCell id="JxaHi2eS-fjqKMebFwfp-246" value="- current_time: DateTime" style="text;strokeColor=none;fillColor=none;align=left;verticalAlign=top;spacingLeft=4;spacingRight=4;overflow=hidden;rotatable=0;points=[[0,0.5],[1,0.5]];portConstraint=eastwest;whiteSpace=wrap;html=1;" vertex="1" parent="JxaHi2eS-fjqKMebFwfp-242">
          <mxGeometry y="52" width="160" height="26" as="geometry" />
        </mxCell>
        <mxCell id="JxaHi2eS-fjqKMebFwfp-247" value="- is_running: bool" style="text;strokeColor=none;fillColor=none;align=left;verticalAlign=top;spacingLeft=4;spacingRight=4;overflow=hidden;rotatable=0;points=[[0,0.5],[1,0.5]];portConstraint=eastwest;whiteSpace=wrap;html=1;" vertex="1" parent="JxaHi2eS-fjqKMebFwfp-242">
          <mxGeometry y="78" width="160" height="26" as="geometry" />
        </mxCell>
        <mxCell id="JxaHi2eS-fjqKMebFwfp-244" value="" style="line;strokeWidth=1;fillColor=none;align=left;verticalAlign=middle;spacingTop=-1;spacingLeft=3;spacingRight=3;rotatable=0;labelPosition=right;points=[];portConstraint=eastwest;strokeColor=inherit;" vertex="1" parent="JxaHi2eS-fjqKMebFwfp-242">
          <mxGeometry y="104" width="160" height="8" as="geometry" />
        </mxCell>
        <mxCell id="JxaHi2eS-fjqKMebFwfp-245" value="+ start(): None" style="text;strokeColor=none;fillColor=none;align=left;verticalAlign=top;spacingLeft=4;spacingRight=4;overflow=hidden;rotatable=0;points=[[0,0.5],[1,0.5]];portConstraint=eastwest;whiteSpace=wrap;html=1;" vertex="1" parent="JxaHi2eS-fjqKMebFwfp-242">
          <mxGeometry y="112" width="160" height="26" as="geometry" />
        </mxCell>
        <mxCell id="JxaHi2eS-fjqKMebFwfp-248" value="+ stop(): None" style="text;strokeColor=none;fillColor=none;align=left;verticalAlign=top;spacingLeft=4;spacingRight=4;overflow=hidden;rotatable=0;points=[[0,0.5],[1,0.5]];portConstraint=eastwest;whiteSpace=wrap;html=1;" vertex="1" parent="JxaHi2eS-fjqKMebFwfp-242">
          <mxGeometry y="138" width="160" height="26" as="geometry" />
        </mxCell>
        <mxCell id="JxaHi2eS-fjqKMebFwfp-249" value="+ update(): None" style="text;strokeColor=none;fillColor=none;align=left;verticalAlign=top;spacingLeft=4;spacingRight=4;overflow=hidden;rotatable=0;points=[[0,0.5],[1,0.5]];portConstraint=eastwest;whiteSpace=wrap;html=1;" vertex="1" parent="JxaHi2eS-fjqKMebFwfp-242">
          <mxGeometry y="164" width="160" height="26" as="geometry" />
        </mxCell>
        <mxCell id="JxaHi2eS-fjqKMebFwfp-250" value="+ get_time(): TimeSpan" style="text;strokeColor=none;fillColor=none;align=left;verticalAlign=top;spacingLeft=4;spacingRight=4;overflow=hidden;rotatable=0;points=[[0,0.5],[1,0.5]];portConstraint=eastwest;whiteSpace=wrap;html=1;" vertex="1" parent="JxaHi2eS-fjqKMebFwfp-242">
          <mxGeometry y="190" width="160" height="26" as="geometry" />
        </mxCell>
        <mxCell id="JxaHi2eS-fjqKMebFwfp-266" value="" style="endArrow=classic;html=1;rounded=0;exitX=0.486;exitY=0.985;exitDx=0;exitDy=0;exitPerimeter=0;entryX=0.48;entryY=0;entryDx=0;entryDy=0;entryPerimeter=0;strokeWidth=2;" edge="1" parent="1" source="JxaHi2eS-fjqKMebFwfp-260" target="JxaHi2eS-fjqKMebFwfp-35">
          <mxGeometry width="50" height="50" relative="1" as="geometry">
            <mxPoint x="210" y="650" as="sourcePoint" />
            <mxPoint x="210" y="720" as="targetPoint" />
          </mxGeometry>
        </mxCell>
        <mxCell id="JxaHi2eS-fjqKMebFwfp-267" value="&lt;b&gt;&lt;font style=&quot;font-size: 14px;&quot;&gt;1&lt;/font&gt;&lt;/b&gt;" style="text;html=1;strokeColor=none;fillColor=none;align=center;verticalAlign=middle;whiteSpace=wrap;rounded=0;" vertex="1" parent="1">
          <mxGeometry x="220" y="642" width="20" height="18" as="geometry" />
        </mxCell>
        <mxCell id="JxaHi2eS-fjqKMebFwfp-268" value="&lt;b style=&quot;&quot;&gt;&lt;font style=&quot;font-size: 17px;&quot;&gt;*&lt;/font&gt;&lt;/b&gt;" style="text;html=1;strokeColor=none;fillColor=none;align=center;verticalAlign=middle;whiteSpace=wrap;rounded=0;" vertex="1" parent="1">
          <mxGeometry x="220" y="706" width="20" height="18" as="geometry" />
        </mxCell>
        <mxCell id="JxaHi2eS-fjqKMebFwfp-271" value="" style="endArrow=classic;html=1;rounded=0;exitX=0.447;exitY=0.002;exitDx=0;exitDy=0;exitPerimeter=0;entryX=1.001;entryY=0.032;entryDx=0;entryDy=0;entryPerimeter=0;strokeWidth=2;" edge="1" parent="1" source="JxaHi2eS-fjqKMebFwfp-61" target="JxaHi2eS-fjqKMebFwfp-23">
          <mxGeometry width="50" height="50" relative="1" as="geometry">
            <mxPoint x="560" y="430" as="sourcePoint" />
            <mxPoint x="610" y="380" as="targetPoint" />
            <Array as="points">
              <mxPoint x="560" y="330" />
            </Array>
          </mxGeometry>
        </mxCell>
        <mxCell id="JxaHi2eS-fjqKMebFwfp-272" value="&lt;b&gt;&lt;font style=&quot;font-size: 14px;&quot;&gt;1&lt;/font&gt;&lt;/b&gt;" style="text;html=1;strokeColor=none;fillColor=none;align=center;verticalAlign=middle;whiteSpace=wrap;rounded=0;" vertex="1" parent="1">
          <mxGeometry x="362.5" y="340" width="20" height="18" as="geometry" />
        </mxCell>
        <mxCell id="JxaHi2eS-fjqKMebFwfp-273" value="&lt;b&gt;&lt;font style=&quot;font-size: 14px;&quot;&gt;1&lt;/font&gt;&lt;/b&gt;" style="text;html=1;strokeColor=none;fillColor=none;align=center;verticalAlign=middle;whiteSpace=wrap;rounded=0;" vertex="1" parent="1">
          <mxGeometry x="537.5" y="502" width="20" height="18" as="geometry" />
        </mxCell>
        <mxCell id="JxaHi2eS-fjqKMebFwfp-274" value="" style="endArrow=classic;html=1;rounded=0;entryX=0.5;entryY=0;entryDx=0;entryDy=0;strokeWidth=2;exitX=0.5;exitY=1;exitDx=0;exitDy=0;" edge="1" parent="1" source="JxaHi2eS-fjqKMebFwfp-35" target="JxaHi2eS-fjqKMebFwfp-31">
          <mxGeometry width="50" height="50" relative="1" as="geometry">
            <mxPoint x="220" y="970" as="sourcePoint" />
            <mxPoint x="440" y="960" as="targetPoint" />
          </mxGeometry>
        </mxCell>
        <mxCell id="JxaHi2eS-fjqKMebFwfp-275" value="&lt;b&gt;&lt;font style=&quot;font-size: 14px;&quot;&gt;1&lt;/font&gt;&lt;/b&gt;" style="text;html=1;strokeColor=none;fillColor=none;align=center;verticalAlign=middle;whiteSpace=wrap;rounded=0;" vertex="1" parent="1">
          <mxGeometry x="220" y="967" width="20" height="18" as="geometry" />
        </mxCell>
        <mxCell id="JxaHi2eS-fjqKMebFwfp-276" value="&lt;b&gt;&lt;font style=&quot;font-size: 14px;&quot;&gt;1&lt;/font&gt;&lt;/b&gt;" style="text;html=1;strokeColor=none;fillColor=none;align=center;verticalAlign=middle;whiteSpace=wrap;rounded=0;" vertex="1" parent="1">
          <mxGeometry x="220" y="996" width="20" height="18" as="geometry" />
        </mxCell>
        <mxCell id="JxaHi2eS-fjqKMebFwfp-277" value="" style="endArrow=classic;html=1;rounded=0;exitX=0.582;exitY=-0.001;exitDx=0;exitDy=0;exitPerimeter=0;entryX=0.004;entryY=0.064;entryDx=0;entryDy=0;entryPerimeter=0;strokeWidth=2;" edge="1" parent="1" source="JxaHi2eS-fjqKMebFwfp-61" target="JxaHi2eS-fjqKMebFwfp-242">
          <mxGeometry width="50" height="50" relative="1" as="geometry">
            <mxPoint x="670" y="380" as="sourcePoint" />
            <mxPoint x="720" y="330" as="targetPoint" />
            <Array as="points">
              <mxPoint x="599" y="330" />
            </Array>
          </mxGeometry>
        </mxCell>
        <mxCell id="JxaHi2eS-fjqKMebFwfp-278" value="&lt;b&gt;&lt;font style=&quot;font-size: 14px;&quot;&gt;1&lt;/font&gt;&lt;/b&gt;" style="text;html=1;strokeColor=none;fillColor=none;align=center;verticalAlign=middle;whiteSpace=wrap;rounded=0;" vertex="1" parent="1">
          <mxGeometry x="600" y="502" width="20" height="18" as="geometry" />
        </mxCell>
        <mxCell id="JxaHi2eS-fjqKMebFwfp-280" value="&lt;b&gt;&lt;font style=&quot;font-size: 14px;&quot;&gt;1&lt;/font&gt;&lt;/b&gt;" style="text;html=1;strokeColor=none;fillColor=none;align=center;verticalAlign=middle;whiteSpace=wrap;rounded=0;" vertex="1" parent="1">
          <mxGeometry x="765" y="340" width="20" height="18" as="geometry" />
        </mxCell>
        <mxCell id="JxaHi2eS-fjqKMebFwfp-281" value="" style="endArrow=classic;html=1;rounded=0;exitX=1.003;exitY=0.061;exitDx=0;exitDy=0;exitPerimeter=0;entryX=0.5;entryY=0;entryDx=0;entryDy=0;strokeWidth=2;" edge="1" parent="1" source="JxaHi2eS-fjqKMebFwfp-61" target="JxaHi2eS-fjqKMebFwfp-57">
          <mxGeometry width="50" height="50" relative="1" as="geometry">
            <mxPoint x="770" y="590" as="sourcePoint" />
            <mxPoint x="820" y="540" as="targetPoint" />
            <Array as="points">
              <mxPoint x="865" y="539" />
            </Array>
          </mxGeometry>
        </mxCell>
        <mxCell id="JxaHi2eS-fjqKMebFwfp-282" value="&lt;b&gt;&lt;font style=&quot;font-size: 14px;&quot;&gt;1&lt;/font&gt;&lt;/b&gt;" style="text;html=1;strokeColor=none;fillColor=none;align=center;verticalAlign=middle;whiteSpace=wrap;rounded=0;" vertex="1" parent="1">
          <mxGeometry x="720" y="541" width="20" height="18" as="geometry" />
        </mxCell>
        <mxCell id="JxaHi2eS-fjqKMebFwfp-284" value="&lt;b&gt;&lt;font style=&quot;font-size: 14px;&quot;&gt;1&lt;/font&gt;&lt;/b&gt;" style="text;html=1;strokeColor=none;fillColor=none;align=center;verticalAlign=middle;whiteSpace=wrap;rounded=0;" vertex="1" parent="1">
          <mxGeometry x="840" y="582" width="20" height="18" as="geometry" />
        </mxCell>
        <mxCell id="JxaHi2eS-fjqKMebFwfp-285" value="" style="endArrow=classic;html=1;rounded=0;entryX=0.5;entryY=0;entryDx=0;entryDy=0;exitX=0.499;exitY=0.982;exitDx=0;exitDy=0;exitPerimeter=0;strokeWidth=2;" edge="1" parent="1" source="JxaHi2eS-fjqKMebFwfp-234" target="JxaHi2eS-fjqKMebFwfp-235">
          <mxGeometry width="50" height="50" relative="1" as="geometry">
            <mxPoint x="575" y="840" as="sourcePoint" />
            <mxPoint x="850" y="770" as="targetPoint" />
          </mxGeometry>
        </mxCell>
        <mxCell id="JxaHi2eS-fjqKMebFwfp-286" value="&lt;b&gt;&lt;font style=&quot;font-size: 14px;&quot;&gt;1&lt;/font&gt;&lt;/b&gt;" style="text;html=1;strokeColor=none;fillColor=none;align=center;verticalAlign=middle;whiteSpace=wrap;rounded=0;" vertex="1" parent="1">
          <mxGeometry x="575" y="837" width="20" height="18" as="geometry" />
        </mxCell>
        <mxCell id="JxaHi2eS-fjqKMebFwfp-287" value="&lt;b&gt;&lt;font style=&quot;font-size: 14px;&quot;&gt;1&lt;/font&gt;&lt;/b&gt;" style="text;html=1;strokeColor=none;fillColor=none;align=center;verticalAlign=middle;whiteSpace=wrap;rounded=0;" vertex="1" parent="1">
          <mxGeometry x="580" y="872" width="20" height="18" as="geometry" />
        </mxCell>
        <mxCell id="JxaHi2eS-fjqKMebFwfp-289" value="&lt;font style=&quot;font-size: 17px;&quot;&gt;Use&lt;/font&gt;" style="endArrow=open;endSize=12;dashed=1;html=1;rounded=0;exitX=0.466;exitY=1.147;exitDx=0;exitDy=0;exitPerimeter=0;entryX=0.5;entryY=1;entryDx=0;entryDy=0;strokeWidth=2;" edge="1" parent="1" source="JxaHi2eS-fjqKMebFwfp-221" target="JxaHi2eS-fjqKMebFwfp-31">
          <mxGeometry x="-0.0007" width="160" relative="1" as="geometry">
            <mxPoint x="900" y="900" as="sourcePoint" />
            <mxPoint x="1060" y="900" as="targetPoint" />
            <Array as="points">
              <mxPoint x="858" y="1200" />
              <mxPoint x="220" y="1200" />
            </Array>
            <mxPoint as="offset" />
          </mxGeometry>
        </mxCell>
        <mxCell id="JxaHi2eS-fjqKMebFwfp-290" value="&lt;font style=&quot;font-size: 17px;&quot;&gt;Use&lt;/font&gt;" style="endArrow=open;endSize=12;dashed=1;html=1;rounded=0;exitX=0;exitY=0.06;exitDx=0;exitDy=0;exitPerimeter=0;entryX=1.006;entryY=0.145;entryDx=0;entryDy=0;entryPerimeter=0;strokeWidth=2;" edge="1" parent="1" source="JxaHi2eS-fjqKMebFwfp-235" target="JxaHi2eS-fjqKMebFwfp-31">
          <mxGeometry width="160" relative="1" as="geometry">
            <mxPoint x="370" y="860" as="sourcePoint" />
            <mxPoint x="530" y="860" as="targetPoint" />
            <Array as="points">
              <mxPoint x="360" y="906" />
              <mxPoint x="360" y="1026" />
            </Array>
          </mxGeometry>
        </mxCell>
        <mxCell id="JxaHi2eS-fjqKMebFwfp-291" value="" style="endArrow=classic;html=1;rounded=0;exitX=0.998;exitY=0.117;exitDx=0;exitDy=0;exitPerimeter=0;entryX=0.5;entryY=0;entryDx=0;entryDy=0;strokeWidth=2;" edge="1" parent="1" source="JxaHi2eS-fjqKMebFwfp-57" target="JxaHi2eS-fjqKMebFwfp-23">
          <mxGeometry width="50" height="50" relative="1" as="geometry">
            <mxPoint x="990" y="500" as="sourcePoint" />
            <mxPoint x="1040" y="450" as="targetPoint" />
            <Array as="points">
              <mxPoint x="1010" y="613" />
              <mxPoint x="1010" y="260" />
              <mxPoint x="220" y="260" />
            </Array>
          </mxGeometry>
        </mxCell>
        <mxCell id="JxaHi2eS-fjqKMebFwfp-292" value="&lt;b&gt;&lt;font style=&quot;font-size: 14px;&quot;&gt;1&lt;/font&gt;&lt;/b&gt;" style="text;html=1;strokeColor=none;fillColor=none;align=center;verticalAlign=middle;whiteSpace=wrap;rounded=0;" vertex="1" parent="1">
          <mxGeometry x="230" y="292" width="20" height="18" as="geometry" />
        </mxCell>
        <mxCell id="JxaHi2eS-fjqKMebFwfp-294" value="Pygame" style="shape=module;align=left;spacingLeft=20;align=center;verticalAlign=top;whiteSpace=wrap;html=1;" vertex="1" parent="1">
          <mxGeometry x="444.75" y="1430" width="82" height="30" as="geometry" />
        </mxCell>
        <mxCell id="JxaHi2eS-fjqKMebFwfp-296" value="Minesweeper Game Module" style="text;align=center;fontStyle=1;verticalAlign=middle;spacingLeft=3;spacingRight=3;strokeColor=none;rotatable=0;points=[[0,0.5],[1,0.5]];portConstraint=eastwest;html=1;" vertex="1" parent="1">
          <mxGeometry x="1263" y="1002" width="80" height="26" as="geometry" />
        </mxCell>
        <mxCell id="JxaHi2eS-fjqKMebFwfp-297" value="&lt;b&gt;Pygame&lt;/b&gt;" style="html=1;dropTarget=0;whiteSpace=wrap;" vertex="1" parent="1">
          <mxGeometry x="1510" y="1130" width="120" height="60" as="geometry" />
        </mxCell>
        <mxCell id="JxaHi2eS-fjqKMebFwfp-298" value="" style="shape=module;jettyWidth=8;jettyHeight=4;" vertex="1" parent="JxaHi2eS-fjqKMebFwfp-297">
          <mxGeometry x="1" width="20" height="20" relative="1" as="geometry">
            <mxPoint x="-27" y="7" as="offset" />
          </mxGeometry>
        </mxCell>
        <mxCell id="JxaHi2eS-fjqKMebFwfp-299" value="" style="endArrow=classic;html=1;rounded=0;exitX=0.5;exitY=1;exitDx=0;exitDy=0;entryX=0;entryY=0.5;entryDx=0;entryDy=0;" edge="1" parent="1" source="JxaHi2eS-fjqKMebFwfp-208" target="JxaHi2eS-fjqKMebFwfp-210">
          <mxGeometry width="50" height="50" relative="1" as="geometry">
            <mxPoint x="1242" y="1196" as="sourcePoint" />
            <mxPoint x="1292" y="1146" as="targetPoint" />
            <Array as="points">
              <mxPoint x="1249" y="1188" />
            </Array>
          </mxGeometry>
        </mxCell>
        <mxCell id="JxaHi2eS-fjqKMebFwfp-300" value="" style="endArrow=classic;html=1;rounded=0;dashed=1;dashPattern=1 1;exitX=-0.011;exitY=0.561;exitDx=0;exitDy=0;exitPerimeter=0;" edge="1" parent="1" source="JxaHi2eS-fjqKMebFwfp-206">
          <mxGeometry width="50" height="50" relative="1" as="geometry">
            <mxPoint x="1320" y="1061" as="sourcePoint" />
            <mxPoint x="1320" y="1060" as="targetPoint" />
          </mxGeometry>
        </mxCell>
        <mxCell id="JxaHi2eS-fjqKMebFwfp-301" value="" style="endArrow=classic;html=1;rounded=0;exitX=1.002;exitY=0.693;exitDx=0;exitDy=0;exitPerimeter=0;entryX=-0.004;entryY=0.312;entryDx=0;entryDy=0;entryPerimeter=0;dashed=1;dashPattern=1 1;" edge="1" parent="1" source="JxaHi2eS-fjqKMebFwfp-208" target="JxaHi2eS-fjqKMebFwfp-297">
          <mxGeometry width="50" height="50" relative="1" as="geometry">
            <mxPoint x="1430" y="1150" as="sourcePoint" />
            <mxPoint x="1480" y="1100" as="targetPoint" />
          </mxGeometry>
        </mxCell>
        <mxCell id="JxaHi2eS-fjqKMebFwfp-302" value="" style="endArrow=classic;html=1;rounded=0;exitX=1;exitY=0.25;exitDx=0;exitDy=0;entryX=0;entryY=0.5;entryDx=0;entryDy=0;dashed=1;dashPattern=1 1;" edge="1" parent="1" source="JxaHi2eS-fjqKMebFwfp-210" target="JxaHi2eS-fjqKMebFwfp-297">
          <mxGeometry width="50" height="50" relative="1" as="geometry">
            <mxPoint x="1480" y="1260" as="sourcePoint" />
            <mxPoint x="1530" y="1210" as="targetPoint" />
          </mxGeometry>
        </mxCell>
      </root>
    </mxGraphModel>
  </diagram>
</mxfile>
